<svg xmlns="http://www.w3.org/2000/svg" style="display: none;">
  <symbol id="bear" viewBox="0 0 512 512">
    <title>bear</title>
      <path d="m422.852 450.161c54.583-46.948 89.148-116.518 89.148-194.161 0-141.385-114.615-256-256-256s-256 114.615-256 256c0 77.643 34.565 147.213 89.148 194.161z" fill="#a3d4ff"/>
      <path d="m512 256c0-11.141-.712-22.116-2.092-32.882l-94.887-94.887-311.48 55.287 59.967 59.967 195.829 40.367 63.515 166.308c54.583-46.947 89.148-116.517 89.148-194.16z" fill="#65b1fc"/>
      <path d="m152.663 455.611c0-57.072 46.266-103.337 103.337-103.337s103.337 46.266 103.337 103.337v34.659c23.205-10.251 44.608-23.835 63.583-40.167l-37.122-207.052h-259.596l-37.122 207.052c18.975 16.332 40.378 29.916 63.583 40.167z" fill="#a65d4e"/>
      <path d="m359.337 456.611v33.659c23.205-10.251 44.608-23.835 63.583-40.167l-37.122-207.052h-129.798v110.222c57.072 0 103.337 46.266 103.337 103.338z" fill="#784132"/><g>
      <path d="m256 351.273c-57.072 0-103.337 46.266-103.337 103.337v35.676c31.605 13.961 66.565 21.714 103.337 21.714s71.733-7.753 103.337-21.713v-35.676c0-57.072-46.265-103.338-103.337-103.338z" fill="#c38778"/></g><g>
      <path d="m256 351.273v160.727c36.772 0 71.732-7.753 103.337-21.713v-35.677c0-57.071-46.265-103.337-103.337-103.337z" fill="#a65d4e"/></g><g><g><g>
      <path d="m143.892 122.665c16.804 11.144 46.094 50.181 34.952 66.985-11.143 16.804-58.498 5.012-75.303-6.132-16.804-11.144-21.394-33.8-10.251-50.605s33.797-21.392 50.602-10.248z" fill="#a65d4e"/></g></g><g><g>
      <path d="m368.108 122.665c-16.804 11.144-46.094 50.181-34.952 66.985s58.498 5.012 75.303-6.132c16.804-11.144 21.394-33.8 10.251-50.605s-33.797-21.392-50.602-10.248z" fill="#784132"/></g></g></g><g>
      <path d="m399.348 229.77c0 70.967-64.179 97.087-143.348 97.087s-143.348-26.12-143.348-97.087 64.179-152.77 143.348-152.77 143.348 81.802 143.348 152.77z" fill="#c38778"/></g><g>
      <path d="m256 77v249.857c79.169 0 143.348-26.12 143.348-97.087 0-70.968-64.179-152.77-143.348-152.77z" fill="#a65d4e"/></g><g><g><g><circle cx="187.471" cy="166.894" fill="#414952" r="14.953"/></g></g><g><g><circle cx="324.529" cy="166.894" fill="#23272b" r="14.953"/></g></g></g><g>
      <path d="m250.247 169.585h11.506c23.314 0 41.307 17.542 38.272 37.314l-5.753 37.483c-2.522 16.432-18.896 28.719-38.272 28.719-19.376 0-35.75-12.287-38.272-28.719l-5.753-37.483c-3.035-19.771 14.958-37.314 38.272-37.314z" fill="#a65d4e"/></g><g>
      <path d="m261.753 169.585h-5.753v103.516c19.376 0 35.75-12.287 38.272-28.719l5.753-37.483c3.035-19.771-14.958-37.314-38.272-37.314z" fill="#784132"/></g><g>
      <path d="m282.379 210.204c0 11.753-11.81 21.281-26.379 21.281s-26.379-9.528-26.379-21.281 11.81-12.702 26.379-12.702 26.379.949 26.379 12.702z" fill="#414952"/></g><g>
      <path d="m256 197.502v33.983c14.569 0 26.379-9.528 26.379-21.281s-11.81-12.702-26.379-12.702z" fill="#23272b"/></g>
  </symbol>
  <symbol id="dog" viewBox="0 0 512 512">  
    <title>dog</title><g><g><g><g><g><g>
      <path d="m113.278 468.556c-68.327-45.97-113.278-124.013-113.278-212.556 0-141.385 114.615-256 256-256s256 114.615 256 256c0 88.543-44.951 166.586-113.278 212.555h-285.444z" fill="#a3d4ff"/></g></g></g></g></g></g>
      <path d="m196.968 468.556h201.755c68.326-45.969 113.277-124.013 113.277-212.556 0-33.423-6.405-65.35-18.055-94.621l-98.995-98.995-69.642 169.58-128.34-128.34z" fill="#65b1fc"/><g>
      <path d="m117.05 62.384 8.711 111.786c.99 12.701 15.875 19.023 25.702 10.916l43.738-36.082c16.996-14.021 13.908-40.899-5.826-50.7z" fill="#f24500"/></g><g>
      <path d="m394.95 62.384-8.711 111.786c-.99 12.701-15.875 19.023-25.702 10.916l-43.738-36.082c-16.996-14.021-13.908-40.899 5.826-50.7z" fill="#ba2b04"/></g><g>
      <path d="m324.368 502.769c26.807-7.411 51.848-19.072 74.354-34.214l-45.741-169.252h-193.962l-45.741 169.252c22.506 15.141 47.547 26.803 74.354 34.214z" fill="#fe6a16"/></g><g>
      <path d="m398.722 468.555-45.741-169.252h-97.337v203.466h68.724c26.807-7.411 51.849-19.072 74.354-34.214z" fill="#f24500"/></g><g>
      <path d="m256 377.729c-37.759 0-68.368 30.61-68.368 68.368v56.672c21.763 6.016 44.69 9.231 68.368 9.231s46.605-3.215 68.368-9.231v-56.672c0-37.759-30.609-68.368-68.368-68.368z" fill="#f24500"/></g><g>
      <path d="m256 377.729c-.12 0-.237.008-.356.009v134.26c.119 0 .237.003.356.003 23.678 0 46.605-3.215 68.368-9.231v-56.672c0-37.76-30.609-68.369-68.368-68.369z" fill="#ba2b04"/></g><g>
      <path d="m362.517 289.717c-23.846 38.298-62.671 66.461-106.517 66.461-72.512 0-131.294-77.027-131.294-149.538s58.782-100.669 131.294-100.669c6.093 0 12.089.199 17.961.606z" fill="#fe8205"/></g><g>
      <path d="m273.961 106.577c-5.872-.407-11.868-.606-17.961-.606-.119 0-.237.002-.356.002v250.2c.119 0 .237.006.356.006 43.846 0 82.672-28.163 106.517-66.461z" fill="#fa5d0f"/></g><g>
      <path d="m304.026 330.55c0 18.104-21.502 40.394-48.026 40.394s-48.026-22.29-48.026-40.394 21.502-25.165 48.026-25.165 48.026 7.061 48.026 25.165z" fill="#555a66"/></g><g>
      <path d="m256 305.385c-.119 0-.237.003-.356.003v65.547c.119.001.237.009.356.009 26.524 0 48.026-22.29 48.026-40.394s-21.502-25.165-48.026-25.165z" fill="#333940"/></g><g>
      <path d="m273.961 106.577v112.387c0 39.076 31.677 70.753 70.753 70.753h17.803c15.59-25.039 24.777-54.411 24.777-83.077 0-66.418-49.319-95.623-113.333-100.063z" fill="#fe8205"/></g><g><g><circle cx="190.761" cy="234.695" fill="#555a66" r="14.296"/></g><g><circle cx="321.239" cy="234.695" fill="#333940" r="14.296"/></g></g>
  </symbol>
  <symbol id="polar-bear" viewBox="-21 -21 682.66669 682.66669">
    <title>polar-bear</title>
    <path d="m640 320c0 176.734375-143.265625 320-320 320s-320-143.265625-320-320 143.265625-320 320-320 320 143.265625 320 320zm0 0" fill="#68fcdf"/>
    <path d="m640 320c0 176.722656-143.277344 320-320 320s-320-143.277344-320-320c0-57.773438 15.3125-111.960938 42.101562-158.75 55.148438 96.335938 158.949219 161.25 277.898438 161.25s222.765625-64.914062 277.898438-161.25c26.789062 46.789062 42.101562 100.976562 42.101562 158.75zm0 0" fill="#10e2c4"/>
    <path d="m601.578125 472.125v.015625c-54.117187 99.960937-159.929687 167.859375-281.578125 167.859375s-227.460938-67.898438-281.578125-167.859375v-.015625zm0 0" fill="#1aba9f"/>
    <path d="m499.785156 453.964844-21.875-177.667969 6.191406-13.796875c7.507813-16.8125 5.25-36.410156-5.929687-51.0625l-10.769531-14.113281c-6.976563-9.125-19.855469-11.273438-29.390625-4.863281l-31.222657 20.9375h-173.578124l-31.222657-20.9375c-9.535156-6.410157-22.414062-4.261719-29.390625 4.863281l-10.769531 14.113281c-11.179687 14.652344-13.4375 34.25-5.929687 51.0625l6.191406 13.796875-21.550782 174.992187-15.113281 122.773438c53.910157 41.347656 121.375 65.9375 194.574219 65.9375.824219 0 1.636719 0 2.460938-.015625 72.25-.535156 138.804687-25.03125 192.113281-65.921875zm0 0" fill="#fff"/>
    <path d="m514.574219 574.0625c-53.308594 40.890625-119.863281 65.386719-192.113281 65.921875v-426.585937h84.328124l31.222657-20.9375c9.535156-6.410157 22.414062-4.261719 29.390625 4.863281l10.769531 14.113281c11.179687 14.652344 13.4375 34.25 5.929687 51.0625l-6.191406 13.796875 21.875 177.667969zm0 0" fill="#d0f6ff"/>
    <path d="m197.675781 211.75c-5.191406-3.472656-12.1875-2.3125-15.976562 2.648438l-5.847657 7.664062c-6.078124 7.960938-7.316406 18.609375-3.214843 27.75l3.347656 7.511719 38.65625-34.183594zm0 0" fill="#8fc9f7"/>
    <path d="m464.847656 222.0625-5.847656-7.664062c-3.785156-4.960938-10.789062-6.121094-15.960938-2.648438l-16.976562 11.390625 38.648438 34.183594 3.367187-7.511719c4.085937-9.140625 2.84375-19.789062-3.230469-27.75zm0 0" fill="#8fc9f7"/>
    <path d="m294.261719 419.304688h-22.363281v-20h22.207031c2.734375-.042969 5.484375-.300782 8.175781-.769532l10.21875-1.773437v-36.847657h20v53.675782l-26.800781 4.652344c-3.742188.648437-7.566407 1.011718-11.363281 1.0625zm0 0" fill="#323b5a"/>
    <path d="m373.414062 419.304688h-22.75c-3.796874-.054688-7.621093-.414063-11.363281-1.0625l-26.800781-4.652344v-53.675782h20v36.847657l10.21875 1.773437c2.691406.46875 5.441406.726563 8.175781.769532h22.523438v20zm0 0" fill="#323b5a"/>
    <path d="m345.113281 370.1875-17.632812 11.261719c-1.523438.972656-3.253907 1.472656-4.984375 1.488281-1.824219.023438-3.648438-.476562-5.238282-1.507812l-17.433593-11.230469c-5.097657-3.285157-7.597657-9.402344-6.265625-15.316407l.949218-4.199218c.601563-2.675782 1.816407-5.175782 3.546876-7.300782h.007812c3.359375-4.117187 8.386719-6.5 13.695312-6.5h21.480469c2.65625 0 5.242188.597657 7.585938 1.707032 2.339843 1.113281 4.441406 2.738281 6.121093 4.800781 1.730469 2.117187 2.941407 4.617187 3.546876 7.292969l.9375 4.160156c1.339843 5.933594-1.191407 12.070312-6.316407 15.34375zm0 0" fill="#474f6f"/>
    <path d="m345.113281 370.1875-17.632812 11.261719c-1.523438.972656-3.253907 1.472656-4.984375 1.488281v-46.058594h10.742187c2.65625 0 5.242188.601563 7.582031 1.710938 2.34375 1.113281 4.445313 2.738281 6.117188 4.792968 1.734375 2.125 2.949219 4.625 3.554688 7.300782l.9375 4.15625c1.339843 5.9375-1.191407 12.074218-6.316407 15.347656zm0 0" fill="#323b5a"/>
    <path d="m272.15625 313.078125c0 10.273437-8.328125 18.601563-18.601562 18.601563-10.277344 0-18.601563-8.328126-18.601563-18.601563 0-10.28125 8.324219-18.609375 18.601563-18.609375 10.273437 0 18.601562 8.328125 18.601562 18.609375zm0 0" fill="#474f6f"/>
    <path d="m405.046875 313.078125c0 10.273437-8.324219 18.601563-18.601563 18.601563-10.273437 0-18.601562-8.328126-18.601562-18.601563 0-10.28125 8.328125-18.609375 18.601562-18.609375 10.277344 0 18.601563 8.328125 18.601563 18.609375zm0 0" fill="#323b5a"/>
    <path d="m514.574219 574.0625c-53.308594 40.890625-119.863281 65.386719-192.113281 65.921875-.824219.015625-1.636719.015625-2.460938.015625-73.199219 0-140.664062-24.589844-194.574219-65.9375l15.113281-122.773438 55.558594 32.546876 18.089844 10.613281c33.4375 19.589843 70.859375 29.363281 108.273438 29.363281 37.414062 0 74.824218-9.773438 108.25-29.363281l18.085937-10.613281 50.988281-29.871094zm0 0" fill="#d0f6ff"/>
    <path d="m514.574219 574.0625c-53.308594 40.890625-119.863281 65.386719-192.113281 65.921875v-116.171875c37.414062 0 74.824218-9.773438 108.25-29.363281l18.085937-10.613281 50.988281-29.871094zm0 0" fill="#8fc9f7"/><g fill="#fff">
    <path d="m115.453125 248.847656h-1.902344c-8.441406 0-15.289062-6.847656-15.289062-15.285156v-1.90625h-10.894531v1.90625c0 8.4375-6.839844 15.285156-15.28125 15.285156h-1.90625v10.894532h1.90625c8.441406 0 15.28125 6.839843 15.28125 15.28125v1.910156h10.894531v-1.910156c0-8.441407 6.847656-15.28125 15.289062-15.28125h1.902344zm0 0"/>
    <path d="m196.269531 117.429688h-1.902343c-8.445313 0-15.285157-6.839844-15.285157-15.28125v-1.90625h-10.894531v1.90625c0 8.441406-6.84375 15.28125-15.28125 15.28125h-1.910156v10.898437h1.910156c8.4375 0 15.28125 6.84375 15.28125 15.285156v1.902344h10.894531v-1.902344c0-8.441406 6.839844-15.285156 15.285157-15.285156h1.902343zm0 0"/>
    <path d="m489 117.429688h-1.90625c-8.4375 0-15.28125-6.839844-15.28125-15.28125v-1.90625h-10.894531v1.90625c0 8.441406-6.839844 15.28125-15.285157 15.28125h-1.90625v10.898437h1.90625c8.445313 0 15.285157 6.84375 15.285157 15.285156v1.902344h10.894531v-1.902344c0-8.441406 6.84375-15.285156 15.28125-15.285156h1.90625zm0 0"/>
    <path d="m569.820312 248.847656h-1.90625c-8.441406 0-15.28125-6.847656-15.28125-15.285156v-1.90625h-10.894531v1.90625c0 8.4375-6.847656 15.285156-15.289062 15.285156h-1.902344v10.894532h1.902344c8.441406 0 15.289062 6.839843 15.289062 15.28125v1.910156h10.894531v-1.910156c0-8.441407 6.839844-15.28125 15.28125-15.28125h1.90625zm0 0"/></g>
  </symbol>
  <symbol id="puffer-fish" viewBox="0 0 512 512">
    <title>puffer-fish</title><g><g><g><g><g><g><circle cx="256" cy="256" fill="#ff6c52" r="256"/></g></g></g></g></g></g>
    <path d="m512 256c0-10.613-.646-21.075-1.901-31.349l-89.376-89.376-362.216 182.788 193.912 193.912c1.192.016 2.385.025 3.581.025 141.385 0 256-114.615 256-256z" fill="#f92814"/><g>
    <path d="m104.231 222.691-57.872-16.991 12.148 112.364 69.319-37.141z" fill="#fdba12"/></g><g>
    <path d="m407.769 222.691 57.872-16.991-12.148 112.364-69.319-37.141z" fill="#ffa300"/></g>
    <path d="m256 189.07c73.848 0 137.933 41.79 169.903 103.01 2.46-11.641 3.763-23.708 3.763-36.08 0-95.913-77.753-173.666-173.666-173.666s-173.666 77.753-173.666 173.666c0 12.373 1.304 24.44 3.763 36.08 31.97-61.22 96.055-103.01 169.903-103.01z" fill="#ffce00"/>
    <path d="m425.903 292.08c2.46-11.641 3.763-23.708 3.763-36.08 0-95.913-77.753-173.666-173.666-173.666v106.736c73.848 0 137.933 41.79 169.903 103.01z" fill="#fdba12"/><g>
    <path d="m256 188.07c-73.967 0-138.142 41.924-170.06 103.305 16.338 78.949 86.269 138.29 170.06 138.29s153.721-59.341 170.06-138.29c-31.918-61.381-96.093-103.305-170.06-103.305z" fill="#ffe89c"/></g><g>
    <path d="m256 188.07v241.596c83.791 0 153.721-59.341 170.06-138.29-31.918-61.382-96.093-103.306-170.06-103.306z" fill="#fad17f"/></g><g><g><circle cx="119.967" cy="162.42" fill="#fff" r="39.508"/></g><g><circle cx="111.325" cy="162.42" fill="#414952" r="14.953"/></g><g><circle cx="392.033" cy="162.42" fill="#e9edf5" r="39.508"/></g><g><circle cx="400.675" cy="162.42" fill="#23272b" r="14.953"/></g></g><g><ellipse cx="256" cy="185.903" fill="#7e8596" rx="42.214" ry="42.214" transform="matrix(.16 -.987 .987 .16 31.491 408.819)"/>
    <path d="m256 143.689v84.427c23.314 0 42.214-18.9 42.214-42.214s-18.9-42.213-42.214-42.213z" fill="#636978"/>
    <path d="m256 243.116c-31.548 0-57.214-25.666-57.214-57.214s25.666-57.214 57.214-57.214 57.214 25.666 57.214 57.214-25.666 57.214-57.214 57.214zm0-84.427c-15.006 0-27.214 12.208-27.214 27.214s12.208 27.214 27.214 27.214 27.214-12.208 27.214-27.214-12.208-27.214-27.214-27.214z" fill="#fff"/>
    <path d="m256 128.689v30c15.006 0 27.214 12.208 27.214 27.214s-12.208 27.213-27.214 27.213v30c31.548 0 57.214-25.666 57.214-57.214s-25.666-57.213-57.214-57.213z" fill="#e9edf5"/></g><g><ellipse cx="127.826" cy="306.711" fill="#ffce00" rx="19.754" ry="19.754" transform="matrix(.16 -.987 .987 .16 -195.4 383.757)"/></g><g><ellipse cx="166.654" cy="359.009" fill="#ffce00" rx="14.903" ry="14.903" transform="matrix(.23 -.973 .973 .23 -221.041 438.722)"/></g><g><ellipse cx="196.461" cy="312.078" fill="#ffce00" rx="16.114" ry="16.114" transform="matrix(.23 -.973 .973 .23 -152.406 431.582)"/></g><g><circle cx="256" cy="334.178" fill="#ffce00" r="16.114"/></g><g>
    <path d="m256 318.063v32.229c8.9 0 16.114-7.215 16.114-16.114s-7.214-16.115-16.114-16.115z" fill="#fdba12"/></g><g><circle cx="166.654" cy="250" fill="#ffce00" r="15.484"/></g><g><circle cx="229.614" cy="378.989" fill="#ffce00" r="12.813"/></g><g><ellipse cx="229.614" cy="276.715" fill="#ffce00" rx="11.231" ry="11.231" transform="matrix(.924 -.383 .383 .924 -88.416 108.933)"/></g><g><ellipse cx="384.174" cy="306.711" fill="#fdba12" rx="19.754" ry="19.754" transform="matrix(.987 -.16 .16 .987 -44.169 65.498)"/></g><g><ellipse cx="345.346" cy="359.009" fill="#fdba12" rx="14.903" ry="14.903" transform="matrix(.973 -.23 .23 .973 -73.245 88.948)"/></g><g><ellipse cx="315.539" cy="312.078" fill="#fdba12" rx="16.114" ry="16.114" transform="matrix(.973 -.23 .23 .973 -63.26 80.845)"/></g><g><circle cx="345.346" cy="250" fill="#fdba12" r="15.484"/></g><g><circle cx="282.386" cy="378.989" fill="#fdba12" r="12.813"/></g><g><ellipse cx="282.386" cy="276.715" fill="#fdba12" rx="11.231" ry="11.231" transform="matrix(.383 -.924 .924 .383 -81.33 431.711)"/></g>
  </symbol>
  <symbol id="dog-1" viewBox="0 0 512 512">
    <title>dog-1</title>
    <path d="M 512 256 C 512 397.386719 397.386719 512 256 512 C 114.613281 512 0 397.386719 0 256 C 0 114.613281 114.613281 0 256 0 C 397.386719 0 512 114.613281 512 256 Z M 512 256 " style=" stroke:none;fill-rule:nonzero;fill:rgb(99.607843%,41.568627%,8.627451%);fill-opacity:1;"/>
    <path d="M 512 256 C 512 255.214844 511.976562 254.429688 511.96875 253.644531 L 315.324219 57 L 342.214844 202.539062 L 196.675781 57 L 197.121094 367.363281 L 124.742188 428.355469 L 202.847656 506.460938 C 219.996094 510.082031 237.773438 512 256 512 C 397.386719 512 512 397.386719 512 256 Z M 512 256 " style=" stroke:none;fill-rule:nonzero;fill:rgb(94.901961%,27.058824%,0%);fill-opacity:1;"/>
    <path d="M 131.464844 479.699219 C 168.328125 500.265625 210.789062 512 256 512 C 301.210938 512 343.671875 500.265625 380.535156 479.699219 L 347.023438 287.34375 L 164.976562 287.34375 Z M 131.464844 479.699219 " style=" stroke:none;fill-rule:nonzero;fill:rgb(20%,22.352941%,25.098039%);fill-opacity:1;"/>
    <path d="M 380.535156 479.699219 L 347.023438 287.34375 L 255.761719 287.34375 L 255.761719 511.996094 C 255.839844 511.996094 255.921875 512 256 512 C 301.210938 512 343.671875 500.265625 380.535156 479.699219 Z M 380.535156 479.699219 " style=" stroke:none;fill-rule:nonzero;fill:rgb(13.72549%,15.294118%,16.862745%);fill-opacity:1;"/>
    <path d="M 196.675781 191.734375 L 164.777344 191.734375 C 144.632812 191.734375 128.300781 175.40625 128.300781 155.261719 C 128.300781 146.980469 131.121094 138.941406 136.296875 132.476562 L 196.675781 57 Z M 196.675781 191.734375 " style=" stroke:none;fill-rule:nonzero;fill:rgb(25.490196%,28.627451%,32.156863%);fill-opacity:1;"/>
    <path d="M 315.324219 191.734375 L 347.222656 191.734375 C 367.367188 191.734375 383.699219 175.40625 383.699219 155.261719 C 383.699219 146.980469 380.878906 138.941406 375.703125 132.476562 L 315.324219 57 Z M 315.324219 191.734375 " style=" stroke:none;fill-rule:nonzero;fill:rgb(20%,22.352941%,25.098039%);fill-opacity:1;"/>
    <path d="M 325.121094 149.921875 L 186.878906 149.921875 C 163.027344 149.921875 143.695312 169.253906 143.695312 193.101562 L 143.695312 279.066406 C 143.695312 293.453125 150.863281 306.898438 162.808594 314.917969 L 176.488281 324.101562 C 188.433594 332.121094 195.601562 345.5625 195.601562 359.953125 C 195.601562 383.800781 214.933594 403.132812 238.78125 403.132812 L 273.21875 403.132812 C 297.066406 403.132812 316.398438 383.800781 316.398438 359.953125 C 316.398438 345.5625 323.566406 332.121094 335.511719 324.101562 L 349.191406 314.917969 C 361.136719 306.898438 368.304688 293.453125 368.304688 279.066406 L 368.304688 193.101562 C 368.304688 169.253906 348.972656 149.921875 325.121094 149.921875 Z M 325.121094 149.921875 " style=" stroke:none;fill-rule:nonzero;fill:rgb(38.823529%,41.176471%,47.058824%);fill-opacity:1;"/>
    <path d="M 325.121094 149.921875 L 255.761719 149.921875 L 255.761719 403.132812 L 273.21875 403.132812 C 297.066406 403.132812 316.398438 383.800781 316.398438 359.949219 C 316.398438 345.5625 323.566406 332.117188 335.511719 324.097656 L 349.191406 314.914062 C 361.136719 306.894531 368.304688 293.453125 368.304688 279.0625 L 368.304688 193.101562 C 368.304688 169.253906 348.972656 149.921875 325.121094 149.921875 Z M 325.121094 149.921875 " style=" stroke:none;fill-rule:nonzero;fill:rgb(33.333333%,35.294118%,40%);fill-opacity:1;"/>
    <path d="M 387.257812 428.355469 C 305.902344 481.40625 206.097656 481.40625 124.742188 428.355469 C 128.9375 419.949219 133.132812 411.539062 137.328125 403.132812 C 210.878906 451.097656 301.117188 451.097656 374.671875 403.132812 C 378.867188 411.539062 383.0625 419.949219 387.257812 428.355469 Z M 387.257812 428.355469 " style=" stroke:none;fill-rule:nonzero;fill:rgb(100%,83.137255%,0%);fill-opacity:1;"/>
    <path d="M 387.257812 428.355469 C 383.0625 419.949219 378.867188 411.539062 374.671875 403.132812 C 337.824219 427.160156 296.789062 439.152344 255.761719 439.105469 L 255.761719 468.144531 C 301.132812 468.191406 346.507812 454.929688 387.257812 428.355469 Z M 387.257812 428.355469 " style=" stroke:none;fill-rule:nonzero;fill:rgb(99.215686%,72.941176%,7.058824%);fill-opacity:1;"/>
    <path d="M 276.90625 474.566406 C 276.90625 486.113281 267.546875 495.472656 256 495.472656 C 244.453125 495.472656 235.09375 486.113281 235.09375 474.566406 C 235.09375 463.019531 244.453125 453.660156 256 453.660156 C 267.546875 453.660156 276.90625 463.019531 276.90625 474.566406 Z M 276.90625 474.566406 " style=" stroke:none;fill-rule:nonzero;fill:rgb(100%,63.921569%,0%);fill-opacity:1;"/>
    <path d="M 256 453.660156 C 255.921875 453.660156 255.84375 453.671875 255.761719 453.671875 L 255.761719 495.460938 C 255.84375 495.464844 255.921875 495.472656 256 495.472656 C 267.546875 495.472656 276.90625 486.113281 276.90625 474.566406 C 276.90625 463.019531 267.546875 453.660156 256 453.660156 Z M 256 453.660156 " style=" stroke:none;fill-rule:nonzero;fill:rgb(100%,58.431373%,0%);fill-opacity:1;"/>
    <path d="M 204.761719 218.957031 L 177.402344 218.957031 L 195.238281 238.949219 C 195.472656 239.238281 195.722656 239.515625 195.980469 239.785156 L 195.984375 239.785156 C 198.210938 242.074219 201.316406 243.496094 204.761719 243.496094 C 211.527344 243.496094 217.015625 238.011719 217.015625 231.242188 L 217.015625 231.214844 C 217.015625 224.445312 211.527344 218.957031 204.761719 218.957031 Z M 204.761719 218.957031 " style=" stroke:none;fill-rule:nonzero;fill:rgb(20%,22.352941%,25.098039%);fill-opacity:1;"/>
    <path d="M 334.597656 218.957031 L 307.238281 218.957031 C 300.472656 218.957031 294.984375 224.445312 294.984375 231.214844 L 294.984375 231.242188 C 294.984375 238.011719 300.472656 243.496094 307.238281 243.496094 C 311.085938 243.496094 314.515625 241.722656 316.761719 238.949219 Z M 334.597656 218.957031 " style=" stroke:none;fill-rule:nonzero;fill:rgb(13.72549%,15.294118%,16.862745%);fill-opacity:1;"/>
    <path d="M 262.5 367.558594 L 262.5 318.988281 C 269.054688 317.378906 274.867188 313.375 278.699219 307.628906 L 285.855469 296.894531 C 291.816406 287.953125 285.40625 275.980469 274.660156 275.980469 L 237.339844 275.980469 C 226.59375 275.980469 220.183594 287.953125 226.144531 296.894531 L 233.300781 307.628906 C 237.132812 313.375 242.945312 317.378906 249.5 318.988281 L 249.5 367.558594 C 231.316406 368.800781 215.085938 375.183594 203.453125 384.765625 C 206.347656 388.882812 209.941406 392.464844 214.066406 395.351562 C 224.324219 387.429688 239.316406 382.417969 256 382.417969 C 272.683594 382.417969 287.675781 387.429688 297.933594 395.351562 C 302.058594 392.464844 305.652344 388.878906 308.546875 384.765625 C 296.914062 375.183594 280.683594 368.800781 262.5 367.558594 Z M 262.5 367.558594 " style=" stroke:none;fill-rule:nonzero;fill:rgb(25.490196%,28.627451%,32.156863%);fill-opacity:1;"/>
    <path d="M 262.5 367.558594 L 262.5 318.988281 C 269.054688 317.378906 274.867188 313.375 278.699219 307.628906 L 285.855469 296.894531 C 291.816406 287.953125 285.40625 275.980469 274.660156 275.980469 L 255.761719 275.980469 L 255.761719 382.425781 C 255.84375 382.425781 255.921875 382.421875 256 382.421875 C 272.683594 382.421875 287.675781 387.429688 297.933594 395.351562 C 302.058594 392.46875 305.652344 388.882812 308.546875 384.765625 C 296.914062 375.183594 280.683594 368.800781 262.5 367.558594 Z M 262.5 367.558594 " style=" stroke:none;fill-rule:nonzero;fill:rgb(20%,22.352941%,25.098039%);fill-opacity:1;"/>
  </symbol>
  <symbol id="weasel" viewBox="0 0 512 512">
    <title>weasel</title>
    <path d="m512 256c0 141.386719-114.613281 256-256 256s-256-114.613281-256-256 114.613281-256 256-256 256 114.613281 256 256zm0 0" fill="#ffce00"/>
    <path d="m92.367188 215.984375 271.996093 271.996094c87.210938-40.808594 147.636719-129.332031 147.636719-231.980469 0-7.539062-.34375-14.996094-.984375-22.371094l-87.667969-87.667968zm0 0" fill="#ffa300"/>
    <path d="m407.882812 280.914062c-9.664062-64.121093-74.75-112.203124-151.882812-112.203124s-142.21875 48.082031-151.882812 112.203124l-24.238282 160.863282c45.886719 43.519531 107.882813 70.222656 176.121094 70.222656s130.234375-26.703125 176.121094-70.222656zm0 0" fill="#707789"/>
    <path d="m432.121094 441.777344-24.238282-160.863282c-9.664062-64.121093-74.75-112.203124-151.882812-112.203124-.09375 0-.191406.003906-.285156.003906v343.28125c.09375 0 .1875.003906.285156.003906 68.238281 0 130.234375-26.703125 176.121094-70.222656zm0 0" fill="#636978"/>
    <path d="m256 512c33.804688 0 66.070312-6.566406 95.617188-18.472656l-6.789063-77.011719c-5.652344-64.121094-43.71875-112.203125-88.828125-112.203125s-83.175781 48.082031-88.828125 112.203125l-6.789063 77.011719c29.546876 11.90625 61.8125 18.472656 95.617188 18.472656zm0 0" fill="#afb4c8"/>
    <path d="m351.617188 493.527344-6.789063-77.011719c-5.652344-64.121094-43.71875-112.203125-88.828125-112.203125-.09375 0-.191406.003906-.285156.007812v207.675782c.09375 0 .1875.003906.285156.003906 33.804688 0 66.070312-6.566406 95.617188-18.472656zm0 0" fill="#9196aa"/>
    <path d="m181.855469 178.902344c0 28.957031-23.472657 52.425781-52.429688 52.425781-28.953125 0-52.425781-23.46875-52.425781-52.425781 0-28.953125 23.472656-52.425782 52.425781-52.425782 28.957031 0 52.429688 23.472657 52.429688 52.425782zm0 0" fill="#707789"/>
    <path d="m156.769531 178.902344c0 15.101562-12.242187 27.34375-27.34375 27.34375-15.097656 0-27.339843-12.242188-27.339843-27.34375 0-15.101563 12.242187-27.339844 27.339843-27.339844 15.101563 0 27.34375 12.238281 27.34375 27.339844zm0 0" fill="#9196aa"/>
    <path d="m435 178.902344c0 28.957031-23.472656 52.425781-52.425781 52.425781-28.957031 0-52.429688-23.46875-52.429688-52.425781 0-28.953125 23.472657-52.425782 52.429688-52.425782 28.953125 0 52.425781 23.472657 52.425781 52.425782zm0 0" fill="#636978"/>
    <path d="m409.914062 178.902344c0 15.101562-12.242187 27.34375-27.339843 27.34375-15.101563 0-27.34375-12.242188-27.34375-27.34375 0-15.101563 12.242187-27.339844 27.34375-27.339844 15.097656 0 27.339843 12.238281 27.339843 27.339844zm0 0" fill="#7e8596"/>
    <path d="m409.941406 256.332031c0 85.015625-153.941406 116.667969-153.941406 116.667969s-153.941406-31.652344-153.941406-116.667969c0-85.019531 68.921875-153.941406 153.941406-153.941406s153.941406 68.921875 153.941406 153.941406zm0 0" fill="#fff"/>
    <path d="m256 102.390625c-.097656 0-.191406.003906-.285156.003906v270.546875c.171875.035156.285156.058594.285156.058594s153.941406-31.652344 153.941406-116.667969c0-85.019531-68.921875-153.941406-153.941406-153.941406zm0 0" fill="#f2f6fc"/>
    <path d="m305.242188 256.332031c0 85.015625-49.242188 116.667969-49.242188 116.667969s-49.242188-31.652344-49.242188-116.667969c0-85.019531 22.046876-153.941406 49.242188-153.941406s49.242188 68.921875 49.242188 153.941406zm0 0" fill="#dce1eb"/>
    <path d="m256 102.390625c-.097656 0-.191406.011719-.285156.011719v270.40625c.183594.125.285156.191406.285156.191406s49.242188-31.648438 49.242188-116.667969-22.046876-153.941406-49.242188-153.941406zm0 0" fill="#cdd2e1"/>
    <path d="m279.722656 382.890625-15.324218 5.890625c-5.40625 2.082031-11.390626 2.082031-16.796876 0l-15.324218-5.890625c-9.035156-3.476563-15-12.15625-15-21.839844 0-12.921875 10.476562-23.394531 23.398437-23.394531h30.648438c12.921875 0 23.398437 10.472656 23.398437 23.394531 0 9.679688-5.964844 18.363281-15 21.839844zm0 0" fill="#555a66"/>
    <path d="m271.324219 337.65625h-15.609375v52.671875c2.941406.039063 5.890625-.46875 8.683594-1.542969l15.324218-5.894531c9.035156-3.476563 15-12.15625 15-21.835937 0-12.925782-10.476562-23.398438-23.398437-23.398438zm0 0" fill="#333940"/>
    <path d="m183.683594 231.328125c0 8.476563-6.871094 15.347656-15.34375 15.347656-8.476563 0-15.347656-6.871093-15.347656-15.347656 0-8.472656 6.871093-15.34375 15.347656-15.34375 8.472656 0 15.34375 6.871094 15.34375 15.34375zm0 0" fill="#555a66"/>
    <path d="m359.007812 231.328125c0 8.476563-6.871093 15.347656-15.347656 15.347656-8.472656 0-15.34375-6.871093-15.34375-15.347656 0-8.472656 6.871094-15.34375 15.34375-15.34375 8.476563 0 15.347656 6.871094 15.347656 15.34375zm0 0" fill="#333940"/>
  </symbol>
  <symbol id="giraffe" viewBox="0 0 512 512">
    <title>giraffe</title><circle cx="256" cy="256" fill="#966857" r="256"/>
    <path d="m286.082 510.232c127.206-14.893 225.918-123.026 225.918-254.232 0-10.943-.69-21.725-2.023-32.307l-96.973-96.973-16.147 28.983-78.703-78.703-16.06 66.895-66.895-66.895-41.034 120.31-75.894 2.46 168.083 168.083-64.441 78.209z" fill="#704639"/>
    <path d="m239.842 91.604c0-13.983-11.336-25.319-25.319-25.319s-25.319 11.336-25.319 25.319c0 8.132 3.838 15.363 9.797 19.996v43.112h31.045v-43.112c5.957-4.633 9.796-11.864 9.796-19.996z" fill="#ffa300"/>
    <path d="m322.797 91.604c0-13.983-11.336-25.319-25.319-25.319s-25.319 11.336-25.319 25.319c0 8.132 3.838 15.363 9.797 19.996v43.112h31.044v-43.112c5.959-4.633 9.797-11.864 9.797-19.996z" fill="#fe8205"/><ellipse cx="256" cy="412.325" fill="#ffa300" rx="50.964" ry="45.39"/>
    <path d="m256 366.935c-.136 0-.269.008-.405.009v90.762c.135.001.269.009.405.009 28.147 0 50.964-20.322 50.964-45.39s-22.817-45.39-50.964-45.39z" fill="#fe8205"/>
    <path d="m194.165 221.89h-24.58c-38.986 0-70.59-31.604-70.59-70.59v-24.58h24.58c38.986 0 70.59 31.604 70.59 70.59z" fill="#ffa300"/>
    <path d="m317.835 221.89h24.58c38.986 0 70.59-31.604 70.59-70.59v-24.58h-24.58c-38.986 0-70.59 31.604-70.59 70.59z" fill="#fe8205"/>
    <path d="m256 436.511c-32.89 0-61.244-23.129-67.853-55.347l-32.657-159.213c-8.811-42.954 24.004-83.183 67.852-83.183h65.314c43.848 0 76.663 40.228 67.852 83.183l-32.657 159.213c-6.607 32.218-34.962 55.347-67.851 55.347z" fill="#fdba12"/>
    <path d="m288.657 138.768h-33.062v297.734c.135.001.269.009.405.009 32.89 0 61.244-23.129 67.853-55.347l32.657-159.213c8.81-42.954-24.005-83.183-67.853-83.183z" fill="#ffa300"/><circle cx="225.719" cy="380.676" fill="#414952" r="11.196"/><circle cx="286.281" cy="380.676" fill="#23272b" r="11.196"/><circle cx="197.219" cy="237.158" fill="#414952" r="13.741"/><circle cx="314.781" cy="237.158" fill="#23272b" r="13.741"/>
    <path d="m186.809 374.64c16.737-9.322 27.167-28.308 24.212-48.827l-5.948-41.294c-3.292-22.853-22.338-40.007-45.181-41.112z" fill="#ffa300"/>
    <path d="m325.191 374.64 26.918-131.233c-22.844 1.105-41.889 18.259-45.181 41.112l-5.948 41.294c-2.957 20.519 7.474 39.505 24.211 48.827z" fill="#fe8205"/>
  </symbol>
  <symbol id="cobra" viewBox="0 0 512 512">
    <title>cobra</title><g> <g> <circle style="fill:#FAD17F;" cx="256" cy="256" r="256"/> </g> </g>
    <path style="fill:#E8BA64;" d="M512,256c0-8.205-0.402-16.315-1.157-24.322l-159.58-159.58l-197.819,346.9l92.799,92.799 c3.239,0.122,6.489,0.203,9.758,0.203C397.385,512,512,397.385,512,256z"/><g> 
    <path style="fill:#A7D80E;" d="M232.5,234.582l-20.821-20.821c-30.971-30.971-51.229-71.034-57.814-114.336l0,0 c-3.354-22.058,13.72-41.925,36.032-41.925H232.5V234.582z"/> </g><g> 
    <path style="fill:#9AC90A;" d="M279.5,234.582l20.821-20.821c30.971-30.971,51.229-71.034,57.814-114.336l0,0 c3.354-22.058-13.72-41.925-36.032-41.925H279.5V234.582z"/> </g><g> <rect x="213.5" y="65.984" style="fill:#8CD302;" width="85" height="207"/> </g><g> <rect x="255.595" y="65.984" style="fill:#8BC108;" width="42.905" height="207"/> </g><g> 
    <path style="fill:#DE4726;" d="M325.726,433.333H186.274c-24.728,0-44.774-20.046-44.774-44.774V238.333h229v150.226 C370.5,413.287,350.454,433.333,325.726,433.333z"/> </g><g> 
    <path style="fill:#C42F12;" d="M255.595,238.333v195h70.131c24.728,0,44.774-20.046,44.774-44.774V238.333H255.595z"/> </g><g> <rect x="244.25" y="138.499" style="fill:#DE4726;" width="23.5" height="61.97"/> </g><g> <rect x="255.595" y="138.499" style="fill:#C42F12;" width="12.155" height="61.97"/> </g><g> 
    <path style="fill:#81B502;" d="M279.22,143.53H232.78c-15.411,0-27.905-12.493-27.905-27.905V57.5h102.25v58.125 C307.125,131.036,294.632,143.53,279.22,143.53z"/> </g><g> 
    <path style="fill:#7CA00A;" d="M255.595,57.5v86.03h23.625c15.411,0,27.905-12.493,27.905-27.905V57.5H255.595z"/> </g><g> <g> <circle style="fill:#1F5F8F;" cx="225.75" cy="99.75" r="10.25"/> </g> <g> <circle style="fill:#0F3E56;" cx="286.25" cy="99.75" r="10.25"/> </g> </g>
  </symbol>
  <symbol id="cow" viewBox="0 0 512 512">
    <title>cow</title><g>
    <path d="m256 326.683c-141.387 0-244.231-158.549-223.582-195.467 43.787-78.289 127.503-131.216 223.582-131.216 96.056 0 179.754 52.901 223.549 131.158 20.669 36.931-82.162 195.525-223.549 195.525z" fill="#bca5eb"/>
    <path d="m512 256c0 26.051-3.891 51.191-11.129 74.871-5.031 16.469-11.672 32.231-19.75 47.109-8.25 15.2-147.391 50.144-225.121 50.144s-216.871-34.944-225.109-50.144c-3.289-6.031-6.332-12.21-9.121-18.531-14-31.629-21.77-66.629-21.77-103.449 0-46.219 12.25-89.57 33.68-127 44.121 77.07 127.16 129 222.32 129s178.211-51.93 222.32-129c21.43 37.43 33.68 80.781 33.68 127z" fill="#7767c6"/>
    <path d="m481.262 377.699c-7.16 13.223-15.434 25.742-24.723 37.43-8.437 10.633-17.719 20.57-27.719 29.723-20.006 18.319-42.932 33.501-67.999 44.768-11.666 5.243-31.284-9.034-43.8-5.565-17.841 4.945-28.978 26.678-48.157 27.628-4.261.21-8.55.317-12.864.317-36.638 0-71.48-7.7-102.996-21.568-25.78-11.345-86.476-61.884-93.926-70.849-1.222-1.471-2.428-2.955-3.617-4.454-9.289-11.688-17.563-24.207-24.723-37.43z" fill="#5e29ad"/></g><g>
    <path d="m268.311 419.669v92.031c19.009-.9 37.471-3.882 55.174-8.708l14.075-14.075v-85.198l-46.166-7.133z" fill="#de916b"/>
    <path d="m314.477 403.719v101.564c16.02-3.743 31.46-8.991 46.165-15.585v-39.815l-23.083-34.623z" fill="#ecbea6"/>
    <path d="m300.207 419.669 60.435 30.214v-139.387l-62.101 12.165-48.906 50.842-11.831 27.814 30.507 18.352z" fill="#f6dbcb"/>
    <path d="m82.109 419.669v24.188c20.712 19.181 44.598 34.976 70.787 46.514v-70.702l-23.083-23.083z" fill="#de916b"/>
    <path d="m210.604 258.089h-4.411l-49.157 50.106-10.902 65.308 23.983 11.541h40.487 14.184l24.847-11.541 111.007-63.007v-52.407z" fill="#ecbea6"/>
    <path d="m249.635 373.503 111.007-63.007v-52.407h-150.038v126.955h14.184z" fill="#de916b"/>
    <path d="m249.635 373.503h-39.031-64.47l-34.624 23.083-4.779 23.083h103.873 57.707z" fill="#f6dbcb"/>
    <path d="m249.635 373.503h-39.031v46.166h57.707z" fill="#ecbea6"/>
    <path d="m337.559 258.089h-23.083c-25.461 0-46.166-20.705-46.166-46.166v-23.083h23.083c25.461 0 46.166 20.705 46.166 46.166z" fill="#de916b"/>
    <path d="m406.808 258.089h-23.083v-23.083c0-25.461 20.705-46.166 46.166-46.166h23.083v23.083c-.001 25.461-20.705 46.166-46.166 46.166z" fill="#de916b"/>
    <path d="m406.808 327.337h-92.331v-92.331c0-12.748 10.335-23.083 23.083-23.083h46.166c12.748 0 23.083 10.335 23.083 23.083v92.331z" fill="#f6dbcb"/><g fill="#ecbea6">
    <path d="m100.74 302c-24.559-7.067-41.714-29.868-41.714-55.453v-11.541h23.083v11.541c0 15.351 10.29 29.034 25.01 33.272z"/>
    <path d="m59.027 419.514c13.935 16.768 29.972 31.725 47.705 44.473v-44.318l39.403-46.166h-87.108z"/>
    <path d="m406.808 350.42h-92.331c-12.748 0-23.083-10.335-23.083-23.083 0-12.748 10.335-23.083 23.083-23.083h92.331c12.748 0 23.083 10.335 23.083 23.083 0 12.749-10.335 23.083-23.083 23.083z"/></g>
    <path d="m162.899 258.089c-58.552 0-103.873 48.89-103.873 103.873v11.541h87.108l60.058-115.414z" fill="#de916b"/></g><g fill="#fff">
    <path d="m260.131 128.777h-1.524c-6.754 0-12.226-5.477-12.226-12.227v-1.523h-8.715v1.523c0 6.75-5.477 12.227-12.227 12.227h-1.527v8.715h1.527c6.75 0 12.227 5.472 12.227 12.226v1.528h8.715v-1.528c0-6.754 5.472-12.226 12.226-12.226h1.524z"/>
    <path d="m405.634 125.476h-1.524c-6.754 0-12.226-5.477-12.226-12.227v-1.523h-8.715v1.523c0 6.75-5.477 12.227-12.227 12.227h-1.527v8.715h1.527c6.75 0 12.227 5.472 12.227 12.226v1.528h8.715v-1.528c0-6.754 5.472-12.226 12.226-12.226h1.524z"/>
    <path d="m331.082 60.859h-1.524c-6.754 0-12.226-5.477-12.226-12.227v-1.523h-8.715v1.523c0 6.75-5.477 12.227-12.227 12.227h-1.527v8.715h1.527c6.75 0 12.227 5.472 12.227 12.226v1.528h8.715v-1.528c0-6.754 5.472-12.226 12.226-12.226h1.524z"/>
    <path d="m121.466 172.819h-1.524c-6.754 0-12.226-5.477-12.226-12.227v-1.523h-8.715v1.523c0 6.75-5.477 12.227-12.227 12.227h-1.527v8.715h1.527c6.75 0 12.227 5.472 12.227 12.226v1.528h8.715v-1.528c0-6.754 5.472-12.226 12.226-12.226h1.524z"/>
    <path d="m167.918 91.87h-1.524c-6.754 0-12.226-5.477-12.226-12.227v-1.523h-8.715v1.523c0 6.75-5.477 12.227-12.227 12.227h-1.527v8.715h1.527c6.75 0 12.227 5.472 12.227 12.226v1.528h8.715v-1.528c0-6.754 5.472-12.226 12.226-12.226h1.524z"/></g>
  </symbol>
  <symbol id="dice" viewBox="0 0 512 512">
		<title>dice</title>
		<path d="m512 256c0 141.386719-114.613281 256-256 256s-256-114.613281-256-256 114.613281-256 256-256 256 114.613281 256 256zm0 0" fill="#FF636E"/>
		<path d="m512 256-93.726562-93.726562-324.546876 190 159.695313 159.695312c.859375.007812 1.714844.03125 2.578125.03125 141.386719 0 256-114.613281 256-256zm0 0" fill="#F03049"/>
		<path d="m255.828125 244.546875-162.101563-82.273437 162.101563-82.273438 162.445313 82.273438zm0 0" fill="#fff"/><path d="m418.273438 162.273438-162.445313-82.273438v164.546875zm0 0" fill="#E9EDF5"/>
		<path d="m418.273438 352.273438-162.445313 82.273437-162.101563-82.273437v-190l162.101563 82.273437 162.445313-82.273437zm0 0" fill="#E9E9FF"/><path d="m255.828125 244.546875 162.445313-82.273437v190l-162.445313 82.273437zm0 0" fill="#CACAFF"/>
		<path d="m288 157.238281c0 12.425781-14.5 22.5-32.171875 22.5-17.675781 0-31.828125-10.074219-31.828125-22.5s14.152344-22.5 31.828125-22.5c17.671875 0 32.171875 10.074219 32.171875 22.5zm0 0" fill="#6B6BED"/>
		<path d="m255.828125 134.738281c-.234375 0 .230469.011719 0 .015625v44.972656c.230469 0-.234375.011719 0 .011719 17.671875 0 32.171875-10.074219 32.171875-22.5s-14.5-22.5-32.171875-22.5zm0 0" fill="#5A54E0"/>
		<path d="m146.054688 216.132812c-1.410157-11.894531-11.140626-20.519531-21.738282-19.265624-10.597656 1.253906-18.050781 11.914062-16.640625 23.808593 1.40625 11.894531 11.136719 20.523438 21.734375 19.269531 10.601563-1.253906 18.050782-11.914062 16.644532-23.8125zm0 0" fill="#6B6BED"/>
		<g fill="#5A54E0"><path d="m384.761719 243.671875c-10.140625-3.335937-15.328125-15.269531-11.589844-26.648437 3.742187-11.375 14.992187-17.894532 25.132813-14.554688 10.136718 3.335938 15.328124 15.265625 11.585937 26.644531-3.738281 11.378907-14.988281 17.898438-25.128906 14.558594zm0 0"/>
			<path d="m281.230469 288.136719c-10.140625-3.335938-15.328125-15.269531-11.589844-26.644531 3.738281-11.378907 14.992187-17.898438 25.128906-14.558594 10.140625 3.335937 15.328125 15.269531 11.589844 26.644531-3.738281 11.382813-14.992187 17.898437-25.128906 14.558594zm0 0"/>
			<path d="m388.09375 354.460938c-10.136719-3.339844-15.328125-15.269532-11.585938-26.648438 3.738282-11.378906 14.988282-17.898438 25.128907-14.558594s15.328125 15.269532 11.589843 26.648438c-3.742187 11.378906-14.992187 17.894531-25.132812 14.558594zm0 0"/>
			<path d="m285.230469 397.414062c-10.140625-3.339843-15.328125-15.269531-11.589844-26.648437s14.992187-17.894531 25.128906-14.558594c10.140625 3.339844 15.328125 15.269531 11.589844 26.648438-3.738281 11.378906-14.992187 17.894531-25.128906 14.558593zm0 0"/>
			<path d="m337.5625 323.664062c-10.136719-3.339843-15.328125-15.269531-11.585938-26.648437 3.738282-11.378906 14.988282-17.894531 25.128907-14.558594 10.136719 3.339844 15.328125 15.269531 11.585937 26.648438-3.738281 11.378906-14.988281 17.898437-25.128906 14.558593zm0 0"/>
		</g>
		<path d="m188.71875 293.472656c-1.40625-11.894531-11.140625-20.523437-21.738281-19.269531-10.597657 1.253906-18.046875 11.914063-16.640625 23.808594s11.140625 20.523437 21.738281 19.269531 18.046875-11.914062 16.640625-23.808594zm0 0" fill="#6B6BED"/>
		<path d="m238.71875 376.144531c-1.410156-11.898437-11.140625-20.523437-21.738281-19.269531-10.597657 1.253906-18.050781 11.914062-16.640625 23.808594 1.40625 11.894531 11.136718 20.523437 21.738281 19.269531 10.597656-1.253906 18.046875-11.914063 16.640625-23.808594zm0 0" fill="#6B6BED"/>
	</symbol>
</svg>
